<?xml version="1.0" standalone="no"?>
<!DOCTYPE svg PUBLIC "-//W3C//DTD SVG 20010904//EN"
 "http://www.w3.org/TR/2001/REC-SVG-20010904/DTD/svg10.dtd">
<svg version="1.0" xmlns="http://www.w3.org/2000/svg"
 width="697.000000pt" height="689.000000pt" viewBox="0 0 697.000000 689.000000"
 preserveAspectRatio="xMidYMid meet">

<g transform="translate(0.000000,689.000000) scale(0.100000,-0.100000)"
fill="#000000" stroke="none">
<path d="M4111 6878 c-141 -9 -148 -10 -380 -84 -130 -42 -307 -103 -394 -135
-604 -226 -1368 -389 -1907 -408 -120 -4 -224 -12 -235 -18 -12 -6 -72 -65
-135 -130 -252 -259 -588 -768 -843 -1279 -118 -235 -155 -330 -187 -477 -25
-116 -28 -142 -20 -198 5 -35 14 -134 20 -219 14 -214 136 -913 184 -1055 116
-339 334 -721 446 -780 14 -7 110 -21 214 -30 159 -14 204 -22 275 -47 79 -28
91 -37 151 -101 35 -39 76 -89 90 -111 136 -216 244 -504 296 -790 30 -168 54
-216 159 -321 82 -82 156 -124 273 -154 175 -45 504 -150 1107 -354 286 -96
389 -125 565 -157 89 -16 472 -24 595 -12 l100 9 565 281 565 281 252 288
c220 251 596 716 833 1028 89 118 137 206 182 336 l33 94 1 484 c1 382 6 563
25 866 l23 383 -38 179 -39 178 -85 145 c-47 80 -96 165 -109 190 -31 62 -67
202 -103 410 -53 301 -101 459 -201 666 -123 253 -366 553 -561 693 -40 28
-144 103 -232 166 -87 63 -175 119 -196 125 -61 16 -844 70 -1000 68 -80 0
-210 -5 -289 -10z m861 -334 c117 -9 214 -17 216 -18 1 -2 -48 -22 -110 -46
-229 -87 -564 -273 -716 -397 l-44 -36 -100 50 -99 51 65 55 c73 62 217 163
313 221 78 46 245 136 255 136 4 0 103 -7 220 -16z m-852 -633 c37 -7 77 -26
124 -58 133 -91 514 -481 686 -702 260 -334 418 -751 461 -1217 6 -71 20 -158
31 -194 64 -215 84 -458 54 -650 -37 -236 -29 -219 -757 -1515 -364 -649 -669
-1197 -678 -1218 l-16 -39 -74 7 c-198 17 -355 59 -768 206 -198 70 -687 226
-922 293 -194 56 -242 99 -267 243 -44 256 -134 522 -254 749 -82 158 -132
228 -240 341 l-95 99 -130 49 c-121 45 -141 49 -300 64 l-170 16 -48 70 c-59
85 -182 334 -232 470 -53 146 -169 800 -190 1079 -15 195 -15 201 6 300 34
161 181 469 395 827 l63 105 248 62 c596 148 1054 217 1508 229 l240 6 175 69
c552 220 915 332 1045 323 28 -2 75 -8 105 -14z"/>
</g>
</svg>
